<svg xmlns="http://www.w3.org/2000/svg" width="90" height="90" viewBox="0 0 27 27">
    <style>
        .title { font: 40pt serif; text-align:center; fill:white;}
    </style>
    <rect x="0" y="0" width="27" height="27" fill="#f1821e"/>
    <rect x="0" y="0" width="1" height="1" fill="#f1821e"/>
    <rect x="0" y="1" width="1" height="1" fill="#fa8800"/>
    <rect x="0" y="2" width="1" height="1" fill="#e47457"/>
    <rect x="0" y="3" width="1" height="1" fill="#d76485"/>
    <rect x="0" y="4" width="1" height="1" fill="#826de6"/>
    <rect x="0" y="5" width="1" height="1" fill="#1f8dd7"/>
    <rect x="0" y="6" width="1" height="1" fill="#6754af"/>
    <rect x="0" y="7" width="1" height="1" fill="#dc6c74"/>
    <rect x="0" y="8" width="1" height="1" fill="#d7697c"/>
    <rect x="0" y="9" width="1" height="1" fill="#6754af"/>
    <rect x="0" y="10" width="1" height="1" fill="#f1821e"/>
    <rect x="0" y="11" width="1" height="1" fill="#fa8800"/>
    <rect x="0" y="12" width="1" height="1" fill="#208ada"/>
    <rect x="0" y="13" width="1" height="1" fill="#0095d7"/>
    <rect x="0" y="14" width="1" height="1" fill="#208ada"/>
    <rect x="0" y="15" width="1" height="1" fill="#3186da"/>
    <rect x="0" y="16" width="1" height="1" fill="#7b6fe5"/>
    <rect x="0" y="17" width="1" height="1" fill="#cc5baa"/>
    <rect x="0" y="18" width="1" height="1" fill="#d7697c"/>
    <rect x="0" y="19" width="1" height="1" fill="#826de6"/>
    <rect x="0" y="20" width="1" height="1" fill="#f1821e"/>
    <rect x="0" y="21" width="1" height="1" fill="#ed7f2d"/>
    <rect x="0" y="22" width="1" height="1" fill="#df6c6a"/>
    <rect x="0" y="23" width="1" height="1" fill="#e47457"/>
    <rect x="0" y="24" width="1" height="1" fill="#7d68d3"/>
    <rect x="0" y="25" width="1" height="1" fill="#547bdf"/>
    <rect x="0" y="26" width="1" height="1" fill="#0095d7"/>
    <rect x="1" y="0" width="1" height="1" fill="#fa8800"/>
    <rect x="1" y="1" width="1" height="1" fill="#1f8dd7"/>
    <rect x="1" y="2" width="1" height="1" fill="#df7160"/>
    <rect x="1" y="3" width="1" height="1" fill="#547bdf"/>
    <rect x="1" y="4" width="1" height="1" fill="#fa8800"/>
    <rect x="1" y="5" width="1" height="1" fill="#ed7f2d"/>
    <rect x="1" y="6" width="1" height="1" fill="#dc6c74"/>
    <rect x="1" y="7" width="1" height="1" fill="#d35e98"/>
    <rect x="1" y="8" width="1" height="1" fill="#0095d7"/>
    <rect x="1" y="9" width="1" height="1" fill="#7b6fe5"/>
    <rect x="1" y="10" width="1" height="1" fill="#ed7f2d"/>
    <rect x="1" y="11" width="1" height="1" fill="#ed7f2d"/>
    <rect x="1" y="12" width="1" height="1" fill="#0095d7"/>
    <rect x="1" y="13" width="1" height="1" fill="#208ada"/>
    <rect x="1" y="14" width="1" height="1" fill="#ed7f2d"/>
    <rect x="1" y="15" width="1" height="1" fill="#eb7840"/>
    <rect x="1" y="16" width="1" height="1" fill="#eb7840"/>
    <rect x="1" y="17" width="1" height="1" fill="#f1821e"/>
    <rect x="1" y="18" width="1" height="1" fill="#dc6c74"/>
    <rect x="1" y="19" width="1" height="1" fill="#7571e5"/>
    <rect x="1" y="20" width="1" height="1" fill="#df6c6a"/>
    <rect x="1" y="21" width="1" height="1" fill="#f1821e"/>
    <rect x="1" y="22" width="1" height="1" fill="#eb7840"/>
    <rect x="1" y="23" width="1" height="1" fill="#f7860e"/>
    <rect x="1" y="24" width="1" height="1" fill="#d35e98"/>
    <rect x="1" y="25" width="1" height="1" fill="#7571e5"/>
    <rect x="1" y="26" width="1" height="1" fill="#eb7840"/>
    <rect x="2" y="0" width="1" height="1" fill="#d35e98"/>
    <rect x="2" y="1" width="1" height="1" fill="#df6c6a"/>
    <rect x="2" y="2" width="1" height="1" fill="#df6c6a"/>
    <rect x="2" y="3" width="1" height="1" fill="#e47457"/>
    <rect x="2" y="4" width="1" height="1" fill="#208ada"/>
    <rect x="2" y="5" width="1" height="1" fill="#ed7f2d"/>
    <rect x="2" y="6" width="1" height="1" fill="#826de6"/>
    <rect x="2" y="7" width="1" height="1" fill="#4b7fdf"/>
    <rect x="2" y="8" width="1" height="1" fill="#d7697c"/>
    <rect x="2" y="9" width="1" height="1" fill="#f1821e"/>
    <rect x="2" y="10" width="1" height="1" fill="#1f8dd7"/>
    <rect x="2" y="11" width="1" height="1" fill="#f1821e"/>
    <rect x="2" y="12" width="1" height="1" fill="#3186da"/>
    <rect x="2" y="13" width="1" height="1" fill="#547bdf"/>
    <rect x="2" y="14" width="1" height="1" fill="#fa8800"/>
    <rect x="2" y="15" width="1" height="1" fill="#eb7840"/>
    <rect x="2" y="16" width="1" height="1" fill="#826de6"/>
    <rect x="2" y="17" width="1" height="1" fill="#fa8800"/>
    <rect x="2" y="18" width="1" height="1" fill="#dc6c74"/>
    <rect x="2" y="19" width="1" height="1" fill="#df7160"/>
    <rect x="2" y="20" width="1" height="1" fill="#c858ba"/>
    <rect x="2" y="21" width="1" height="1" fill="#df6c6a"/>
    <rect x="2" y="22" width="1" height="1" fill="#6754af"/>
    <rect x="2" y="23" width="1" height="1" fill="#d7697c"/>
    <rect x="2" y="24" width="1" height="1" fill="#3186da"/>
    <rect x="2" y="25" width="1" height="1" fill="#df6c6a"/>
    <rect x="2" y="26" width="1" height="1" fill="#df6c6a"/>
    <rect x="3" y="0" width="1" height="1" fill="#f1821e"/>
    <rect x="3" y="1" width="1" height="1" fill="#fa8800"/>
    <rect x="3" y="2" width="1" height="1" fill="#4c448d"/>
    <rect x="3" y="3" width="1" height="1" fill="#df7160"/>
    <rect x="3" y="4" width="1" height="1" fill="#dc6c74"/>
    <rect x="3" y="5" width="1" height="1" fill="#f1821e"/>
    <rect x="3" y="6" width="1" height="1" fill="#dc6c74"/>
    <rect x="3" y="7" width="1" height="1" fill="#df6c6a"/>
    <rect x="3" y="8" width="1" height="1" fill="#fa8800"/>
    <rect x="3" y="9" width="1" height="1" fill="#eb7840"/>
    <rect x="3" y="10" width="1" height="1" fill="#df6c6a"/>
    <rect x="3" y="11" width="1" height="1" fill="#6b75e1"/>
    <rect x="3" y="12" width="1" height="1" fill="#cc5baa"/>
    <rect x="3" y="13" width="1" height="1" fill="#c858ba"/>
    <rect x="3" y="14" width="1" height="1" fill="#547bdf"/>
    <rect x="3" y="15" width="1" height="1" fill="#df6c6a"/>
    <rect x="3" y="16" width="1" height="1" fill="#7d68d3"/>
    <rect x="3" y="17" width="1" height="1" fill="#eb7840"/>
    <rect x="3" y="18" width="1" height="1" fill="#f7860e"/>
    <rect x="3" y="19" width="1" height="1" fill="#f7860e"/>
    <rect x="3" y="20" width="1" height="1" fill="#ed7f2d"/>
    <rect x="3" y="21" width="1" height="1" fill="#6b75e1"/>
    <rect x="3" y="22" width="1" height="1" fill="#4c448d"/>
    <rect x="3" y="23" width="1" height="1" fill="#e6754c"/>
    <rect x="3" y="24" width="1" height="1" fill="#d7697c"/>
    <rect x="3" y="25" width="1" height="1" fill="#547bdf"/>
    <rect x="3" y="26" width="1" height="1" fill="#7b6fe5"/>
    <rect x="4" y="0" width="1" height="1" fill="#f7860e"/>
    <rect x="4" y="1" width="1" height="1" fill="#e47457"/>
    <rect x="4" y="2" width="1" height="1" fill="#6754af"/>
    <rect x="4" y="3" width="1" height="1" fill="#fa8800"/>
    <rect x="4" y="4" width="1" height="1" fill="#5c78df"/>
    <rect x="4" y="5" width="1" height="1" fill="#ed7f2d"/>
    <rect x="4" y="6" width="1" height="1" fill="#eb7840"/>
    <rect x="4" y="7" width="1" height="1" fill="#826de6"/>
    <rect x="4" y="8" width="1" height="1" fill="#d76485"/>
    <rect x="4" y="9" width="1" height="1" fill="#1f8dd7"/>
    <rect x="4" y="10" width="1" height="1" fill="#cc5baa"/>
    <rect x="4" y="11" width="1" height="1" fill="#4c448d"/>
    <rect x="4" y="12" width="1" height="1" fill="#f1821e"/>
    <rect x="4" y="13" width="1" height="1" fill="#4c448d"/>
    <rect x="4" y="14" width="1" height="1" fill="#208ada"/>
    <rect x="4" y="15" width="1" height="1" fill="#dc6c74"/>
    <rect x="4" y="16" width="1" height="1" fill="#1f8dd7"/>
    <rect x="4" y="17" width="1" height="1" fill="#c858ba"/>
    <rect x="4" y="18" width="1" height="1" fill="#826de6"/>
    <rect x="4" y="19" width="1" height="1" fill="#547bdf"/>
    <rect x="4" y="20" width="1" height="1" fill="#ed7f2d"/>
    <rect x="4" y="21" width="1" height="1" fill="#7b6fe5"/>
    <rect x="4" y="22" width="1" height="1" fill="#d76485"/>
    <rect x="4" y="23" width="1" height="1" fill="#3186da"/>
    <rect x="4" y="24" width="1" height="1" fill="#1f8dd7"/>
    <rect x="4" y="25" width="1" height="1" fill="#7d68d3"/>
    <rect x="4" y="26" width="1" height="1" fill="#dc6c74"/>
    <rect x="5" y="0" width="1" height="1" fill="#e47457"/>
    <rect x="5" y="1" width="1" height="1" fill="#547bdf"/>
    <rect x="5" y="2" width="1" height="1" fill="#6b75e1"/>
    <rect x="5" y="3" width="1" height="1" fill="#3186da"/>
    <rect x="5" y="4" width="1" height="1" fill="#4c448d"/>
    <rect x="5" y="5" width="1" height="1" fill="#7571e5"/>
    <rect x="5" y="6" width="1" height="1" fill="#f1821e"/>
    <rect x="5" y="7" width="1" height="1" fill="#208ada"/>
    <rect x="5" y="8" width="1" height="1" fill="#0095d7"/>
    <rect x="5" y="9" width="1" height="1" fill="#d76485"/>
    <rect x="5" y="10" width="1" height="1" fill="#6754af"/>
    <rect x="5" y="11" width="1" height="1" fill="#7b6fe5"/>
    <rect x="5" y="12" width="1" height="1" fill="#eb7840"/>
    <rect x="5" y="13" width="1" height="1" fill="#df7160"/>
    <rect x="5" y="14" width="1" height="1" fill="#e6754c"/>
    <rect x="5" y="15" width="1" height="1" fill="#df7160"/>
    <rect x="5" y="16" width="1" height="1" fill="#4b7fdf"/>
    <rect x="5" y="17" width="1" height="1" fill="#cc5baa"/>
    <rect x="5" y="18" width="1" height="1" fill="#6b75e1"/>
    <rect x="5" y="19" width="1" height="1" fill="#fa8800"/>
    <rect x="5" y="20" width="1" height="1" fill="#1f8dd7"/>
    <rect x="5" y="21" width="1" height="1" fill="#eb7840"/>
    <rect x="5" y="22" width="1" height="1" fill="#3186da"/>
    <rect x="5" y="23" width="1" height="1" fill="#3186da"/>
    <rect x="5" y="24" width="1" height="1" fill="#d76485"/>
    <rect x="5" y="25" width="1" height="1" fill="#6754af"/>
    <rect x="5" y="26" width="1" height="1" fill="#d7697c"/>
    <rect x="6" y="0" width="1" height="1" fill="#7b6fe5"/>
    <rect x="6" y="1" width="1" height="1" fill="#0095d7"/>
    <rect x="6" y="2" width="1" height="1" fill="#dc6c74"/>
    <rect x="6" y="3" width="1" height="1" fill="#ed7f2d"/>
    <rect x="6" y="4" width="1" height="1" fill="#f1821e"/>
    <rect x="6" y="5" width="1" height="1" fill="#6754af"/>
    <rect x="6" y="6" width="1" height="1" fill="#c858ba"/>
    <rect x="6" y="7" width="1" height="1" fill="#dc6c74"/>
    <rect x="6" y="8" width="1" height="1" fill="#3186da"/>
    <rect x="6" y="9" width="1" height="1" fill="#dc6c74"/>
    <rect x="6" y="10" width="1" height="1" fill="#547bdf"/>
    <rect x="6" y="11" width="1" height="1" fill="#3186da"/>
    <rect x="6" y="12" width="1" height="1" fill="#df7160"/>
    <rect x="6" y="13" width="1" height="1" fill="#208ada"/>
    <rect x="6" y="14" width="1" height="1" fill="#e6754c"/>
    <rect x="6" y="15" width="1" height="1" fill="#d7697c"/>
    <rect x="6" y="16" width="1" height="1" fill="#7b6fe5"/>
    <rect x="6" y="17" width="1" height="1" fill="#ed7f2d"/>
    <rect x="6" y="18" width="1" height="1" fill="#6754af"/>
    <rect x="6" y="19" width="1" height="1" fill="#df7160"/>
    <rect x="6" y="20" width="1" height="1" fill="#e47457"/>
    <rect x="6" y="21" width="1" height="1" fill="#d76485"/>
    <rect x="6" y="22" width="1" height="1" fill="#6b75e1"/>
    <rect x="6" y="23" width="1" height="1" fill="#826de6"/>
    <rect x="6" y="24" width="1" height="1" fill="#dc6c74"/>
    <rect x="6" y="25" width="1" height="1" fill="#e47457"/>
    <rect x="6" y="26" width="1" height="1" fill="#1f8dd7"/>
    <rect x="7" y="0" width="1" height="1" fill="#5c78df"/>
    <rect x="7" y="1" width="1" height="1" fill="#fa8800"/>
    <rect x="7" y="2" width="1" height="1" fill="#7d68d3"/>
    <rect x="7" y="3" width="1" height="1" fill="#4c448d"/>
    <rect x="7" y="4" width="1" height="1" fill="#6754af"/>
    <rect x="7" y="5" width="1" height="1" fill="#e47457"/>
    <rect x="7" y="6" width="1" height="1" fill="#4b7fdf"/>
    <rect x="7" y="7" width="1" height="1" fill="#dc6c74"/>
    <rect x="7" y="8" width="1" height="1" fill="#fa8800"/>
    <rect x="7" y="9" width="1" height="1" fill="#826de6"/>
    <rect x="7" y="10" width="1" height="1" fill="#208ada"/>
    <rect x="7" y="11" width="1" height="1" fill="#7b6fe5"/>
    <rect x="7" y="12" width="1" height="1" fill="#4c448d"/>
    <rect x="7" y="13" width="1" height="1" fill="#4c448d"/>
    <rect x="7" y="14" width="1" height="1" fill="#7d68d3"/>
    <rect x="7" y="15" width="1" height="1" fill="#f1821e"/>
    <rect x="7" y="16" width="1" height="1" fill="#0095d7"/>
    <rect x="7" y="17" width="1" height="1" fill="#547bdf"/>
    <rect x="7" y="18" width="1" height="1" fill="#547bdf"/>
    <rect x="7" y="19" width="1" height="1" fill="#0095d7"/>
    <rect x="7" y="20" width="1" height="1" fill="#826de6"/>
    <rect x="7" y="21" width="1" height="1" fill="#3186da"/>
    <rect x="7" y="22" width="1" height="1" fill="#826de6"/>
    <rect x="7" y="23" width="1" height="1" fill="#7571e5"/>
    <rect x="7" y="24" width="1" height="1" fill="#d76485"/>
    <rect x="7" y="25" width="1" height="1" fill="#0095d7"/>
    <rect x="7" y="26" width="1" height="1" fill="#3186da"/>
    <rect x="8" y="0" width="1" height="1" fill="#7b6fe5"/>
    <rect x="8" y="1" width="1" height="1" fill="#547bdf"/>
    <rect x="8" y="2" width="1" height="1" fill="#f7860e"/>
    <rect x="8" y="3" width="1" height="1" fill="#3186da"/>
    <rect x="8" y="4" width="1" height="1" fill="#3186da"/>
    <rect x="8" y="5" width="1" height="1" fill="#e47457"/>
    <rect x="8" y="6" width="1" height="1" fill="#cc5baa"/>
    <rect x="8" y="7" width="1" height="1" fill="#e47457"/>
    <rect x="8" y="8" width="1" height="1" fill="#7571e5"/>
    <rect x="8" y="9" width="1" height="1" fill="#0095d7"/>
    <rect x="8" y="10" width="1" height="1" fill="#5c78df"/>
    <rect x="8" y="11" width="1" height="1" fill="#f7860e"/>
    <rect x="8" y="12" width="1" height="1" fill="#0095d7"/>
    <rect x="8" y="13" width="1" height="1" fill="#1f8dd7"/>
    <rect x="8" y="14" width="1" height="1" fill="#4c448d"/>
    <rect x="8" y="15" width="1" height="1" fill="#0095d7"/>
    <rect x="8" y="16" width="1" height="1" fill="#fa8800"/>
    <rect x="8" y="17" width="1" height="1" fill="#3186da"/>
    <rect x="8" y="18" width="1" height="1" fill="#547bdf"/>
    <rect x="8" y="19" width="1" height="1" fill="#547bdf"/>
    <rect x="8" y="20" width="1" height="1" fill="#fa8800"/>
    <rect x="8" y="21" width="1" height="1" fill="#0095d7"/>
    <rect x="8" y="22" width="1" height="1" fill="#df6c6a"/>
    <rect x="8" y="23" width="1" height="1" fill="#0095d7"/>
    <rect x="8" y="24" width="1" height="1" fill="#5c78df"/>
    <rect x="8" y="25" width="1" height="1" fill="#fa8800"/>
    <rect x="8" y="26" width="1" height="1" fill="#0095d7"/>
    <rect x="9" y="0" width="1" height="1" fill="#6b75e1"/>
    <rect x="9" y="1" width="1" height="1" fill="#1f8dd7"/>
    <rect x="9" y="2" width="1" height="1" fill="#d7697c"/>
    <rect x="9" y="3" width="1" height="1" fill="#e47457"/>
    <rect x="9" y="4" width="1" height="1" fill="#ed7f2d"/>
    <rect x="9" y="5" width="1" height="1" fill="#ed7f2d"/>
    <rect x="9" y="6" width="1" height="1" fill="#d7697c"/>
    <rect x="9" y="7" width="1" height="1" fill="#c858ba"/>
    <rect x="9" y="8" width="1" height="1" fill="#df6c6a"/>
    <rect x="9" y="9" width="1" height="1" fill="#4c448d"/>
    <rect x="9" y="10" width="1" height="1" fill="#547bdf"/>
    <rect x="9" y="11" width="1" height="1" fill="#df7160"/>
    <rect x="9" y="12" width="1" height="1" fill="#7571e5"/>
    <rect x="9" y="13" width="1" height="1" fill="#e6754c"/>
    <rect x="9" y="14" width="1" height="1" fill="#f7860e"/>
    <rect x="9" y="15" width="1" height="1" fill="#d7697c"/>
    <rect x="9" y="16" width="1" height="1" fill="#df7160"/>
    <rect x="9" y="17" width="1" height="1" fill="#7b6fe5"/>
    <rect x="9" y="18" width="1" height="1" fill="#0095d7"/>
    <rect x="9" y="19" width="1" height="1" fill="#f1821e"/>
    <rect x="9" y="20" width="1" height="1" fill="#df7160"/>
    <rect x="9" y="21" width="1" height="1" fill="#5c78df"/>
    <rect x="9" y="22" width="1" height="1" fill="#df6c6a"/>
    <rect x="9" y="23" width="1" height="1" fill="#df7160"/>
    <rect x="9" y="24" width="1" height="1" fill="#d76485"/>
    <rect x="9" y="25" width="1" height="1" fill="#6b75e1"/>
    <rect x="9" y="26" width="1" height="1" fill="#0095d7"/>
    <rect x="10" y="0" width="1" height="1" fill="#208ada"/>
    <rect x="10" y="1" width="1" height="1" fill="#d76485"/>
    <rect x="10" y="2" width="1" height="1" fill="#547bdf"/>
    <rect x="10" y="3" width="1" height="1" fill="#6754af"/>
    <rect x="10" y="4" width="1" height="1" fill="#cc5baa"/>
    <rect x="10" y="5" width="1" height="1" fill="#5c78df"/>
    <rect x="10" y="6" width="1" height="1" fill="#dc6c74"/>
    <rect x="10" y="7" width="1" height="1" fill="#f7860e"/>
    <rect x="10" y="8" width="1" height="1" fill="#fa8800"/>
    <rect x="10" y="9" width="1" height="1" fill="#d7697c"/>
    <rect x="10" y="10" width="1" height="1" fill="#3186da"/>
    <rect x="10" y="11" width="1" height="1" fill="#d76485"/>
    <rect x="10" y="12" width="1" height="1" fill="#cc5baa"/>
    <rect x="10" y="13" width="1" height="1" fill="#547bdf"/>
    <rect x="10" y="14" width="1" height="1" fill="#ed7f2d"/>
    <rect x="10" y="15" width="1" height="1" fill="#6754af"/>
    <rect x="10" y="16" width="1" height="1" fill="#4c448d"/>
    <rect x="10" y="17" width="1" height="1" fill="#6b75e1"/>
    <rect x="10" y="18" width="1" height="1" fill="#f7860e"/>
    <rect x="10" y="19" width="1" height="1" fill="#4b7fdf"/>
    <rect x="10" y="20" width="1" height="1" fill="#d76485"/>
    <rect x="10" y="21" width="1" height="1" fill="#0095d7"/>
    <rect x="10" y="22" width="1" height="1" fill="#4b7fdf"/>
    <rect x="10" y="23" width="1" height="1" fill="#1f8dd7"/>
    <rect x="10" y="24" width="1" height="1" fill="#f1821e"/>
    <rect x="10" y="25" width="1" height="1" fill="#d7697c"/>
    <rect x="10" y="26" width="1" height="1" fill="#e47457"/>
    <rect x="11" y="0" width="1" height="1" fill="#dc6c74"/>
    <rect x="11" y="1" width="1" height="1" fill="#e47457"/>
    <rect x="11" y="2" width="1" height="1" fill="#7571e5"/>
    <rect x="11" y="3" width="1" height="1" fill="#6b75e1"/>
    <rect x="11" y="4" width="1" height="1" fill="#dc6c74"/>
    <rect x="11" y="5" width="1" height="1" fill="#eb7840"/>
    <rect x="11" y="6" width="1" height="1" fill="#dc6c74"/>
    <rect x="11" y="7" width="1" height="1" fill="#547bdf"/>
    <rect x="11" y="8" width="1" height="1" fill="#6754af"/>
    <rect x="11" y="9" width="1" height="1" fill="#3186da"/>
    <rect x="11" y="10" width="1" height="1" fill="#7d68d3"/>
    <rect x="11" y="11" width="1" height="1" fill="#cc5baa"/>
    <rect x="11" y="12" width="1" height="1" fill="#6754af"/>
    <rect x="11" y="13" width="1" height="1" fill="#d7697c"/>
    <rect x="11" y="14" width="1" height="1" fill="#e6754c"/>
    <rect x="11" y="15" width="1" height="1" fill="#d35e98"/>
    <rect x="11" y="16" width="1" height="1" fill="#7d68d3"/>
    <rect x="11" y="17" width="1" height="1" fill="#826de6"/>
    <rect x="11" y="18" width="1" height="1" fill="#cc5baa"/>
    <rect x="11" y="19" width="1" height="1" fill="#826de6"/>
    <rect x="11" y="20" width="1" height="1" fill="#f1821e"/>
    <rect x="11" y="21" width="1" height="1" fill="#4b7fdf"/>
    <rect x="11" y="22" width="1" height="1" fill="#eb7840"/>
    <rect x="11" y="23" width="1" height="1" fill="#f1821e"/>
    <rect x="11" y="24" width="1" height="1" fill="#d35e98"/>
    <rect x="11" y="25" width="1" height="1" fill="#7d68d3"/>
    <rect x="11" y="26" width="1" height="1" fill="#df7160"/>
    <rect x="12" y="0" width="1" height="1" fill="#e6754c"/>
    <rect x="12" y="1" width="1" height="1" fill="#fa8800"/>
    <rect x="12" y="2" width="1" height="1" fill="#e6754c"/>
    <rect x="12" y="3" width="1" height="1" fill="#6754af"/>
    <rect x="12" y="4" width="1" height="1" fill="#df6c6a"/>
    <rect x="12" y="5" width="1" height="1" fill="#4c448d"/>
    <rect x="12" y="6" width="1" height="1" fill="#ed7f2d"/>
    <rect x="12" y="7" width="1" height="1" fill="#7571e5"/>
    <rect x="12" y="8" width="1" height="1" fill="#6754af"/>
    <rect x="12" y="9" width="1" height="1" fill="#fa8800"/>
    <rect x="12" y="10" width="1" height="1" fill="#3186da"/>
    <rect x="12" y="11" width="1" height="1" fill="#0095d7"/>
    <rect x="12" y="12" width="1" height="1" fill="#e47457"/>
    <rect x="12" y="13" width="1" height="1" fill="#208ada"/>
    <rect x="12" y="14" width="1" height="1" fill="#7b6fe5"/>
    <rect x="12" y="15" width="1" height="1" fill="#df6c6a"/>
    <rect x="12" y="16" width="1" height="1" fill="#6754af"/>
    <rect x="12" y="17" width="1" height="1" fill="#7d68d3"/>
    <rect x="12" y="18" width="1" height="1" fill="#e6754c"/>
    <rect x="12" y="19" width="1" height="1" fill="#d7697c"/>
    <rect x="12" y="20" width="1" height="1" fill="#208ada"/>
    <rect x="12" y="21" width="1" height="1" fill="#df6c6a"/>
    <rect x="12" y="22" width="1" height="1" fill="#826de6"/>
    <rect x="12" y="23" width="1" height="1" fill="#7571e5"/>
    <rect x="12" y="24" width="1" height="1" fill="#e6754c"/>
    <rect x="12" y="25" width="1" height="1" fill="#f7860e"/>
    <rect x="12" y="26" width="1" height="1" fill="#6b75e1"/>
    <rect x="13" y="0" width="1" height="1" fill="#eb7840"/>
    <rect x="13" y="1" width="1" height="1" fill="#d7697c"/>
    <rect x="13" y="2" width="1" height="1" fill="#f1821e"/>
    <rect x="13" y="3" width="1" height="1" fill="#e47457"/>
    <rect x="13" y="4" width="1" height="1" fill="#7d68d3"/>
    <rect x="13" y="5" width="1" height="1" fill="#1f8dd7"/>
    <rect x="13" y="6" width="1" height="1" fill="#f1821e"/>
    <rect x="13" y="7" width="1" height="1" fill="#eb7840"/>
    <rect x="13" y="8" width="1" height="1" fill="#4c448d"/>
    <rect x="13" y="9" width="1" height="1" fill="#7d68d3"/>
    <rect x="13" y="10" width="1" height="1" fill="#fa8800"/>
    <rect x="13" y="11" width="1" height="1" fill="#7d68d3"/>
    <rect x="13" y="12" width="1" height="1" fill="#3186da"/>
    <rect x="13" y="13" width="1" height="1" fill="#d76485"/>
    <rect x="13" y="14" width="1" height="1" fill="#d7697c"/>
    <rect x="13" y="15" width="1" height="1" fill="#d7697c"/>
    <rect x="13" y="16" width="1" height="1" fill="#826de6"/>
    <rect x="13" y="17" width="1" height="1" fill="#f1821e"/>
    <rect x="13" y="18" width="1" height="1" fill="#0095d7"/>
    <rect x="13" y="19" width="1" height="1" fill="#d35e98"/>
    <rect x="13" y="20" width="1" height="1" fill="#6b75e1"/>
    <rect x="13" y="21" width="1" height="1" fill="#208ada"/>
    <rect x="13" y="22" width="1" height="1" fill="#e6754c"/>
    <rect x="13" y="23" width="1" height="1" fill="#0095d7"/>
    <rect x="13" y="24" width="1" height="1" fill="#547bdf"/>
    <rect x="13" y="25" width="1" height="1" fill="#3186da"/>
    <rect x="13" y="26" width="1" height="1" fill="#5c78df"/>
    <rect x="14" y="0" width="1" height="1" fill="#6754af"/>
    <rect x="14" y="1" width="1" height="1" fill="#d7697c"/>
    <rect x="14" y="2" width="1" height="1" fill="#547bdf"/>
    <rect x="14" y="3" width="1" height="1" fill="#e6754c"/>
    <rect x="14" y="4" width="1" height="1" fill="#d35e98"/>
    <rect x="14" y="5" width="1" height="1" fill="#0095d7"/>
    <rect x="14" y="6" width="1" height="1" fill="#3186da"/>
    <rect x="14" y="7" width="1" height="1" fill="#c858ba"/>
    <rect x="14" y="8" width="1" height="1" fill="#547bdf"/>
    <rect x="14" y="9" width="1" height="1" fill="#df7160"/>
    <rect x="14" y="10" width="1" height="1" fill="#df6c6a"/>
    <rect x="14" y="11" width="1" height="1" fill="#7b6fe5"/>
    <rect x="14" y="12" width="1" height="1" fill="#d7697c"/>
    <rect x="14" y="13" width="1" height="1" fill="#eb7840"/>
    <rect x="14" y="14" width="1" height="1" fill="#1f8dd7"/>
    <rect x="14" y="15" width="1" height="1" fill="#5c78df"/>
    <rect x="14" y="16" width="1" height="1" fill="#ed7f2d"/>
    <rect x="14" y="17" width="1" height="1" fill="#1f8dd7"/>
    <rect x="14" y="18" width="1" height="1" fill="#d7697c"/>
    <rect x="14" y="19" width="1" height="1" fill="#c858ba"/>
    <rect x="14" y="20" width="1" height="1" fill="#4b7fdf"/>
    <rect x="14" y="21" width="1" height="1" fill="#f1821e"/>
    <rect x="14" y="22" width="1" height="1" fill="#7b6fe5"/>
    <rect x="14" y="23" width="1" height="1" fill="#0095d7"/>
    <rect x="14" y="24" width="1" height="1" fill="#fa8800"/>
    <rect x="14" y="25" width="1" height="1" fill="#4c448d"/>
    <rect x="14" y="26" width="1" height="1" fill="#e47457"/>
    <rect x="15" y="0" width="1" height="1" fill="#6b75e1"/>
    <rect x="15" y="1" width="1" height="1" fill="#7571e5"/>
    <rect x="15" y="2" width="1" height="1" fill="#f7860e"/>
    <rect x="15" y="3" width="1" height="1" fill="#e6754c"/>
    <rect x="15" y="4" width="1" height="1" fill="#4b7fdf"/>
    <rect x="15" y="5" width="1" height="1" fill="#ed7f2d"/>
    <rect x="15" y="6" width="1" height="1" fill="#3186da"/>
    <rect x="15" y="7" width="1" height="1" fill="#e6754c"/>
    <rect x="15" y="8" width="1" height="1" fill="#eb7840"/>
    <rect x="15" y="9" width="1" height="1" fill="#cc5baa"/>
    <rect x="15" y="10" width="1" height="1" fill="#cc5baa"/>
    <rect x="15" y="11" width="1" height="1" fill="#d35e98"/>
    <rect x="15" y="12" width="1" height="1" fill="#d35e98"/>
    <rect x="15" y="13" width="1" height="1" fill="#547bdf"/>
    <rect x="15" y="14" width="1" height="1" fill="#d35e98"/>
    <rect x="15" y="15" width="1" height="1" fill="#d76485"/>
    <rect x="15" y="16" width="1" height="1" fill="#eb7840"/>
    <rect x="15" y="17" width="1" height="1" fill="#7571e5"/>
    <rect x="15" y="18" width="1" height="1" fill="#7d68d3"/>
    <rect x="15" y="19" width="1" height="1" fill="#208ada"/>
    <rect x="15" y="20" width="1" height="1" fill="#7d68d3"/>
    <rect x="15" y="21" width="1" height="1" fill="#f1821e"/>
    <rect x="15" y="22" width="1" height="1" fill="#4c448d"/>
    <rect x="15" y="23" width="1" height="1" fill="#d35e98"/>
    <rect x="15" y="24" width="1" height="1" fill="#e6754c"/>
    <rect x="15" y="25" width="1" height="1" fill="#d35e98"/>
    <rect x="15" y="26" width="1" height="1" fill="#df7160"/>
    <rect x="16" y="0" width="1" height="1" fill="#1f8dd7"/>
    <rect x="16" y="1" width="1" height="1" fill="#eb7840"/>
    <rect x="16" y="2" width="1" height="1" fill="#1f8dd7"/>
    <rect x="16" y="3" width="1" height="1" fill="#df7160"/>
    <rect x="16" y="4" width="1" height="1" fill="#0095d7"/>
    <rect x="16" y="5" width="1" height="1" fill="#1f8dd7"/>
    <rect x="16" y="6" width="1" height="1" fill="#e47457"/>
    <rect x="16" y="7" width="1" height="1" fill="#4b7fdf"/>
    <rect x="16" y="8" width="1" height="1" fill="#cc5baa"/>
    <rect x="16" y="9" width="1" height="1" fill="#c858ba"/>
    <rect x="16" y="10" width="1" height="1" fill="#c858ba"/>
    <rect x="16" y="11" width="1" height="1" fill="#cc5baa"/>
    <rect x="16" y="12" width="1" height="1" fill="#0095d7"/>
    <rect x="16" y="13" width="1" height="1" fill="#e47457"/>
    <rect x="16" y="14" width="1" height="1" fill="#eb7840"/>
    <rect x="16" y="15" width="1" height="1" fill="#1f8dd7"/>
    <rect x="16" y="16" width="1" height="1" fill="#fa8800"/>
    <rect x="16" y="17" width="1" height="1" fill="#d35e98"/>
    <rect x="16" y="18" width="1" height="1" fill="#e6754c"/>
    <rect x="16" y="19" width="1" height="1" fill="#ed7f2d"/>
    <rect x="16" y="20" width="1" height="1" fill="#6b75e1"/>
    <rect x="16" y="21" width="1" height="1" fill="#d76485"/>
    <rect x="16" y="22" width="1" height="1" fill="#ed7f2d"/>
    <rect x="16" y="23" width="1" height="1" fill="#d76485"/>
    <rect x="16" y="24" width="1" height="1" fill="#ed7f2d"/>
    <rect x="16" y="25" width="1" height="1" fill="#5c78df"/>
    <rect x="16" y="26" width="1" height="1" fill="#6b75e1"/>
    <rect x="17" y="0" width="1" height="1" fill="#f1821e"/>
    <rect x="17" y="1" width="1" height="1" fill="#d7697c"/>
    <rect x="17" y="2" width="1" height="1" fill="#3186da"/>
    <rect x="17" y="3" width="1" height="1" fill="#7d68d3"/>
    <rect x="17" y="4" width="1" height="1" fill="#f1821e"/>
    <rect x="17" y="5" width="1" height="1" fill="#4c448d"/>
    <rect x="17" y="6" width="1" height="1" fill="#d76485"/>
    <rect x="17" y="7" width="1" height="1" fill="#df6c6a"/>
    <rect x="17" y="8" width="1" height="1" fill="#5c78df"/>
    <rect x="17" y="9" width="1" height="1" fill="#df6c6a"/>
    <rect x="17" y="10" width="1" height="1" fill="#208ada"/>
    <rect x="17" y="11" width="1" height="1" fill="#4b7fdf"/>
    <rect x="17" y="12" width="1" height="1" fill="#0095d7"/>
    <rect x="17" y="13" width="1" height="1" fill="#d7697c"/>
    <rect x="17" y="14" width="1" height="1" fill="#df7160"/>
    <rect x="17" y="15" width="1" height="1" fill="#7571e5"/>
    <rect x="17" y="16" width="1" height="1" fill="#3186da"/>
    <rect x="17" y="17" width="1" height="1" fill="#f1821e"/>
    <rect x="17" y="18" width="1" height="1" fill="#d76485"/>
    <rect x="17" y="19" width="1" height="1" fill="#7571e5"/>
    <rect x="17" y="20" width="1" height="1" fill="#fa8800"/>
    <rect x="17" y="21" width="1" height="1" fill="#d76485"/>
    <rect x="17" y="22" width="1" height="1" fill="#6754af"/>
    <rect x="17" y="23" width="1" height="1" fill="#c858ba"/>
    <rect x="17" y="24" width="1" height="1" fill="#d35e98"/>
    <rect x="17" y="25" width="1" height="1" fill="#d7697c"/>
    <rect x="17" y="26" width="1" height="1" fill="#547bdf"/>
    <rect x="18" y="0" width="1" height="1" fill="#6b75e1"/>
    <rect x="18" y="1" width="1" height="1" fill="#f1821e"/>
    <rect x="18" y="2" width="1" height="1" fill="#df7160"/>
    <rect x="18" y="3" width="1" height="1" fill="#1f8dd7"/>
    <rect x="18" y="4" width="1" height="1" fill="#208ada"/>
    <rect x="18" y="5" width="1" height="1" fill="#d7697c"/>
    <rect x="18" y="6" width="1" height="1" fill="#7571e5"/>
    <rect x="18" y="7" width="1" height="1" fill="#d35e98"/>
    <rect x="18" y="8" width="1" height="1" fill="#6754af"/>
    <rect x="18" y="9" width="1" height="1" fill="#f7860e"/>
    <rect x="18" y="10" width="1" height="1" fill="#df6c6a"/>
    <rect x="18" y="11" width="1" height="1" fill="#d35e98"/>
    <rect x="18" y="12" width="1" height="1" fill="#e47457"/>
    <rect x="18" y="13" width="1" height="1" fill="#d7697c"/>
    <rect x="18" y="14" width="1" height="1" fill="#f1821e"/>
    <rect x="18" y="15" width="1" height="1" fill="#547bdf"/>
    <rect x="18" y="16" width="1" height="1" fill="#d76485"/>
    <rect x="18" y="17" width="1" height="1" fill="#4b7fdf"/>
    <rect x="18" y="18" width="1" height="1" fill="#dc6c74"/>
    <rect x="18" y="19" width="1" height="1" fill="#4b7fdf"/>
    <rect x="18" y="20" width="1" height="1" fill="#df7160"/>
    <rect x="18" y="21" width="1" height="1" fill="#547bdf"/>
    <rect x="18" y="22" width="1" height="1" fill="#5c78df"/>
    <rect x="18" y="23" width="1" height="1" fill="#4b7fdf"/>
    <rect x="18" y="24" width="1" height="1" fill="#c858ba"/>
    <rect x="18" y="25" width="1" height="1" fill="#4b7fdf"/>
    <rect x="18" y="26" width="1" height="1" fill="#df7160"/>
    <rect x="19" y="0" width="1" height="1" fill="#5c78df"/>
    <rect x="19" y="1" width="1" height="1" fill="#d7697c"/>
    <rect x="19" y="2" width="1" height="1" fill="#d35e98"/>
    <rect x="19" y="3" width="1" height="1" fill="#1f8dd7"/>
    <rect x="19" y="4" width="1" height="1" fill="#d76485"/>
    <rect x="19" y="5" width="1" height="1" fill="#f7860e"/>
    <rect x="19" y="6" width="1" height="1" fill="#ed7f2d"/>
    <rect x="19" y="7" width="1" height="1" fill="#1f8dd7"/>
    <rect x="19" y="8" width="1" height="1" fill="#d7697c"/>
    <rect x="19" y="9" width="1" height="1" fill="#4c448d"/>
    <rect x="19" y="10" width="1" height="1" fill="#ed7f2d"/>
    <rect x="19" y="11" width="1" height="1" fill="#208ada"/>
    <rect x="19" y="12" width="1" height="1" fill="#3186da"/>
    <rect x="19" y="13" width="1" height="1" fill="#f7860e"/>
    <rect x="19" y="14" width="1" height="1" fill="#f7860e"/>
    <rect x="19" y="15" width="1" height="1" fill="#208ada"/>
    <rect x="19" y="16" width="1" height="1" fill="#fa8800"/>
    <rect x="19" y="17" width="1" height="1" fill="#cc5baa"/>
    <rect x="19" y="18" width="1" height="1" fill="#ed7f2d"/>
    <rect x="19" y="19" width="1" height="1" fill="#f7860e"/>
    <rect x="19" y="20" width="1" height="1" fill="#eb7840"/>
    <rect x="19" y="21" width="1" height="1" fill="#6b75e1"/>
    <rect x="19" y="22" width="1" height="1" fill="#4b7fdf"/>
    <rect x="19" y="23" width="1" height="1" fill="#c858ba"/>
    <rect x="19" y="24" width="1" height="1" fill="#dc6c74"/>
    <rect x="19" y="25" width="1" height="1" fill="#cc5baa"/>
    <rect x="19" y="26" width="1" height="1" fill="#cc5baa"/>
    <rect x="20" y="0" width="1" height="1" fill="#7d68d3"/>
    <rect x="20" y="1" width="1" height="1" fill="#cc5baa"/>
    <rect x="20" y="2" width="1" height="1" fill="#cc5baa"/>
    <rect x="20" y="3" width="1" height="1" fill="#ed7f2d"/>
    <rect x="20" y="4" width="1" height="1" fill="#3186da"/>
    <rect x="20" y="5" width="1" height="1" fill="#4b7fdf"/>
    <rect x="20" y="6" width="1" height="1" fill="#f7860e"/>
    <rect x="20" y="7" width="1" height="1" fill="#d35e98"/>
    <rect x="20" y="8" width="1" height="1" fill="#0095d7"/>
    <rect x="20" y="9" width="1" height="1" fill="#6754af"/>
    <rect x="20" y="10" width="1" height="1" fill="#7d68d3"/>
    <rect x="20" y="11" width="1" height="1" fill="#826de6"/>
    <rect x="20" y="12" width="1" height="1" fill="#df7160"/>
    <rect x="20" y="13" width="1" height="1" fill="#0095d7"/>
    <rect x="20" y="14" width="1" height="1" fill="#3186da"/>
    <rect x="20" y="15" width="1" height="1" fill="#d35e98"/>
    <rect x="20" y="16" width="1" height="1" fill="#4c448d"/>
    <rect x="20" y="17" width="1" height="1" fill="#fa8800"/>
    <rect x="20" y="18" width="1" height="1" fill="#dc6c74"/>
    <rect x="20" y="19" width="1" height="1" fill="#dc6c74"/>
    <rect x="20" y="20" width="1" height="1" fill="#3186da"/>
    <rect x="20" y="21" width="1" height="1" fill="#e6754c"/>
    <rect x="20" y="22" width="1" height="1" fill="#fa8800"/>
    <rect x="20" y="23" width="1" height="1" fill="#ed7f2d"/>
    <rect x="20" y="24" width="1" height="1" fill="#547bdf"/>
    <rect x="20" y="25" width="1" height="1" fill="#208ada"/>
    <rect x="20" y="26" width="1" height="1" fill="#e6754c"/>
    <rect x="21" y="0" width="1" height="1" fill="#7b6fe5"/>
    <rect x="21" y="1" width="1" height="1" fill="#f1821e"/>
    <rect x="21" y="2" width="1" height="1" fill="#d7697c"/>
    <rect x="21" y="3" width="1" height="1" fill="#4c448d"/>
    <rect x="21" y="4" width="1" height="1" fill="#ed7f2d"/>
    <rect x="21" y="5" width="1" height="1" fill="#ed7f2d"/>
    <rect x="21" y="6" width="1" height="1" fill="#cc5baa"/>
    <rect x="21" y="7" width="1" height="1" fill="#6754af"/>
    <rect x="21" y="8" width="1" height="1" fill="#7b6fe5"/>
    <rect x="21" y="9" width="1" height="1" fill="#d7697c"/>
    <rect x="21" y="10" width="1" height="1" fill="#f1821e"/>
    <rect x="21" y="11" width="1" height="1" fill="#4b7fdf"/>
    <rect x="21" y="12" width="1" height="1" fill="#f7860e"/>
    <rect x="21" y="13" width="1" height="1" fill="#e47457"/>
    <rect x="21" y="14" width="1" height="1" fill="#4b7fdf"/>
    <rect x="21" y="15" width="1" height="1" fill="#d7697c"/>
    <rect x="21" y="16" width="1" height="1" fill="#e47457"/>
    <rect x="21" y="17" width="1" height="1" fill="#eb7840"/>
    <rect x="21" y="18" width="1" height="1" fill="#6b75e1"/>
    <rect x="21" y="19" width="1" height="1" fill="#c858ba"/>
    <rect x="21" y="20" width="1" height="1" fill="#208ada"/>
    <rect x="21" y="21" width="1" height="1" fill="#df7160"/>
    <rect x="21" y="22" width="1" height="1" fill="#4c448d"/>
    <rect x="21" y="23" width="1" height="1" fill="#dc6c74"/>
    <rect x="21" y="24" width="1" height="1" fill="#ed7f2d"/>
    <rect x="21" y="25" width="1" height="1" fill="#d7697c"/>
    <rect x="21" y="26" width="1" height="1" fill="#d7697c"/>
    <rect x="22" y="0" width="1" height="1" fill="#d7697c"/>
    <rect x="22" y="1" width="1" height="1" fill="#3186da"/>
    <rect x="22" y="2" width="1" height="1" fill="#6b75e1"/>
    <rect x="22" y="3" width="1" height="1" fill="#d76485"/>
    <rect x="22" y="4" width="1" height="1" fill="#0095d7"/>
    <rect x="22" y="5" width="1" height="1" fill="#ed7f2d"/>
    <rect x="22" y="6" width="1" height="1" fill="#df6c6a"/>
    <rect x="22" y="7" width="1" height="1" fill="#7d68d3"/>
    <rect x="22" y="8" width="1" height="1" fill="#df7160"/>
    <rect x="22" y="9" width="1" height="1" fill="#f7860e"/>
    <rect x="22" y="10" width="1" height="1" fill="#f1821e"/>
    <rect x="22" y="11" width="1" height="1" fill="#df7160"/>
    <rect x="22" y="12" width="1" height="1" fill="#5c78df"/>
    <rect x="22" y="13" width="1" height="1" fill="#547bdf"/>
    <rect x="22" y="14" width="1" height="1" fill="#7d68d3"/>
    <rect x="22" y="15" width="1" height="1" fill="#7571e5"/>
    <rect x="22" y="16" width="1" height="1" fill="#208ada"/>
    <rect x="22" y="17" width="1" height="1" fill="#fa8800"/>
    <rect x="22" y="18" width="1" height="1" fill="#4b7fdf"/>
    <rect x="22" y="19" width="1" height="1" fill="#e47457"/>
    <rect x="22" y="20" width="1" height="1" fill="#d35e98"/>
    <rect x="22" y="21" width="1" height="1" fill="#df6c6a"/>
    <rect x="22" y="22" width="1" height="1" fill="#df6c6a"/>
    <rect x="22" y="23" width="1" height="1" fill="#f1821e"/>
    <rect x="22" y="24" width="1" height="1" fill="#cc5baa"/>
    <rect x="22" y="25" width="1" height="1" fill="#7d68d3"/>
    <rect x="22" y="26" width="1" height="1" fill="#3186da"/>
    <rect x="23" y="0" width="1" height="1" fill="#6b75e1"/>
    <rect x="23" y="1" width="1" height="1" fill="#cc5baa"/>
    <rect x="23" y="2" width="1" height="1" fill="#5c78df"/>
    <rect x="23" y="3" width="1" height="1" fill="#cc5baa"/>
    <rect x="23" y="4" width="1" height="1" fill="#e47457"/>
    <rect x="23" y="5" width="1" height="1" fill="#cc5baa"/>
    <rect x="23" y="6" width="1" height="1" fill="#6754af"/>
    <rect x="23" y="7" width="1" height="1" fill="#6b75e1"/>
    <rect x="23" y="8" width="1" height="1" fill="#7b6fe5"/>
    <rect x="23" y="9" width="1" height="1" fill="#d76485"/>
    <rect x="23" y="10" width="1" height="1" fill="#df7160"/>
    <rect x="23" y="11" width="1" height="1" fill="#1f8dd7"/>
    <rect x="23" y="12" width="1" height="1" fill="#7b6fe5"/>
    <rect x="23" y="13" width="1" height="1" fill="#547bdf"/>
    <rect x="23" y="14" width="1" height="1" fill="#0095d7"/>
    <rect x="23" y="15" width="1" height="1" fill="#6b75e1"/>
    <rect x="23" y="16" width="1" height="1" fill="#df7160"/>
    <rect x="23" y="17" width="1" height="1" fill="#1f8dd7"/>
    <rect x="23" y="18" width="1" height="1" fill="#df6c6a"/>
    <rect x="23" y="19" width="1" height="1" fill="#e6754c"/>
    <rect x="23" y="20" width="1" height="1" fill="#df6c6a"/>
    <rect x="23" y="21" width="1" height="1" fill="#6754af"/>
    <rect x="23" y="22" width="1" height="1" fill="#3186da"/>
    <rect x="23" y="23" width="1" height="1" fill="#df7160"/>
    <rect x="23" y="24" width="1" height="1" fill="#d7697c"/>
    <rect x="23" y="25" width="1" height="1" fill="#4c448d"/>
    <rect x="23" y="26" width="1" height="1" fill="#5c78df"/>
    <rect x="24" y="0" width="1" height="1" fill="#4c448d"/>
    <rect x="24" y="1" width="1" height="1" fill="#1f8dd7"/>
    <rect x="24" y="2" width="1" height="1" fill="#7b6fe5"/>
    <rect x="24" y="3" width="1" height="1" fill="#d76485"/>
    <rect x="24" y="4" width="1" height="1" fill="#7d68d3"/>
    <rect x="24" y="5" width="1" height="1" fill="#cc5baa"/>
    <rect x="24" y="6" width="1" height="1" fill="#e6754c"/>
    <rect x="24" y="7" width="1" height="1" fill="#fa8800"/>
    <rect x="24" y="8" width="1" height="1" fill="#f7860e"/>
    <rect x="24" y="9" width="1" height="1" fill="#df7160"/>
    <rect x="24" y="10" width="1" height="1" fill="#f7860e"/>
    <rect x="24" y="11" width="1" height="1" fill="#ed7f2d"/>
    <rect x="24" y="12" width="1" height="1" fill="#f7860e"/>
    <rect x="24" y="13" width="1" height="1" fill="#7b6fe5"/>
    <rect x="24" y="14" width="1" height="1" fill="#f1821e"/>
    <rect x="24" y="15" width="1" height="1" fill="#d35e98"/>
    <rect x="24" y="16" width="1" height="1" fill="#5c78df"/>
    <rect x="24" y="17" width="1" height="1" fill="#208ada"/>
    <rect x="24" y="18" width="1" height="1" fill="#7b6fe5"/>
    <rect x="24" y="19" width="1" height="1" fill="#e6754c"/>
    <rect x="24" y="20" width="1" height="1" fill="#3186da"/>
    <rect x="24" y="21" width="1" height="1" fill="#7b6fe5"/>
    <rect x="24" y="22" width="1" height="1" fill="#6754af"/>
    <rect x="24" y="23" width="1" height="1" fill="#df6c6a"/>
    <rect x="24" y="24" width="1" height="1" fill="#d76485"/>
    <rect x="24" y="25" width="1" height="1" fill="#7571e5"/>
    <rect x="24" y="26" width="1" height="1" fill="#4c448d"/>
    <rect x="25" y="0" width="1" height="1" fill="#1f8dd7"/>
    <rect x="25" y="1" width="1" height="1" fill="#fa8800"/>
    <rect x="25" y="2" width="1" height="1" fill="#e47457"/>
    <rect x="25" y="3" width="1" height="1" fill="#cc5baa"/>
    <rect x="25" y="4" width="1" height="1" fill="#1f8dd7"/>
    <rect x="25" y="5" width="1" height="1" fill="#dc6c74"/>
    <rect x="25" y="6" width="1" height="1" fill="#d35e98"/>
    <rect x="25" y="7" width="1" height="1" fill="#1f8dd7"/>
    <rect x="25" y="8" width="1" height="1" fill="#df6c6a"/>
    <rect x="25" y="9" width="1" height="1" fill="#547bdf"/>
    <rect x="25" y="10" width="1" height="1" fill="#208ada"/>
    <rect x="25" y="11" width="1" height="1" fill="#6b75e1"/>
    <rect x="25" y="12" width="1" height="1" fill="#3186da"/>
    <rect x="25" y="13" width="1" height="1" fill="#d35e98"/>
    <rect x="25" y="14" width="1" height="1" fill="#d76485"/>
    <rect x="25" y="15" width="1" height="1" fill="#3186da"/>
    <rect x="25" y="16" width="1" height="1" fill="#0095d7"/>
    <rect x="25" y="17" width="1" height="1" fill="#df6c6a"/>
    <rect x="25" y="18" width="1" height="1" fill="#d76485"/>
    <rect x="25" y="19" width="1" height="1" fill="#1f8dd7"/>
    <rect x="25" y="20" width="1" height="1" fill="#cc5baa"/>
    <rect x="25" y="21" width="1" height="1" fill="#c858ba"/>
    <rect x="25" y="22" width="1" height="1" fill="#d7697c"/>
    <rect x="25" y="23" width="1" height="1" fill="#208ada"/>
    <rect x="25" y="24" width="1" height="1" fill="#0095d7"/>
    <rect x="25" y="25" width="1" height="1" fill="#208ada"/>
    <rect x="25" y="26" width="1" height="1" fill="#cc5baa"/>
    <rect x="26" y="0" width="1" height="1" fill="#826de6"/>
    <rect x="26" y="1" width="1" height="1" fill="#3186da"/>
    <rect x="26" y="2" width="1" height="1" fill="#f7860e"/>
    <rect x="26" y="3" width="1" height="1" fill="#f7860e"/>
    <rect x="26" y="4" width="1" height="1" fill="#e6754c"/>
    <rect x="26" y="5" width="1" height="1" fill="#3186da"/>
    <rect x="26" y="6" width="1" height="1" fill="#c858ba"/>
    <rect x="26" y="7" width="1" height="1" fill="#1f8dd7"/>
    <rect x="26" y="8" width="1" height="1" fill="#df7160"/>
    <rect x="26" y="9" width="1" height="1" fill="#d76485"/>
    <rect x="26" y="10" width="1" height="1" fill="#cc5baa"/>
    <rect x="26" y="11" width="1" height="1" fill="#7b6fe5"/>
    <rect x="26" y="12" width="1" height="1" fill="#6754af"/>
    <rect x="26" y="13" width="1" height="1" fill="#1f8dd7"/>
    <rect x="26" y="14" width="1" height="1" fill="#6b75e1"/>
    <rect x="26" y="15" width="1" height="1" fill="#208ada"/>
    <rect x="26" y="16" width="1" height="1" fill="#ed7f2d"/>
    <rect x="26" y="17" width="1" height="1" fill="#826de6"/>
    <rect x="26" y="18" width="1" height="1" fill="#6b75e1"/>
    <rect x="26" y="19" width="1" height="1" fill="#0095d7"/>
    <rect x="26" y="20" width="1" height="1" fill="#eb7840"/>
    <rect x="26" y="21" width="1" height="1" fill="#ed7f2d"/>
    <rect x="26" y="22" width="1" height="1" fill="#4c448d"/>
    <rect x="26" y="23" width="1" height="1" fill="#e6754c"/>
    <rect x="26" y="24" width="1" height="1" fill="#6754af"/>
    <rect x="26" y="25" width="1" height="1" fill="#4b7fdf"/>
    <rect x="26" y="26" width="1" height="1" fill="#df7160"/>

    <text x="1" y="26" class="title">K</text>
</svg>